<?xml version="1.0" encoding="UTF-8"?>
<svg width="126px" height="38px" viewBox="0 0 126 38" version="1.1" xmlns="http://www.w3.org/2000/svg" xmlns:xlink="http://www.w3.org/1999/xlink">
    <title>logo-brown</title>
    <g id="logo-brown" stroke="none" stroke-width="1" fill="none" fill-rule="evenodd">
        <g id="Group-2" transform="translate(2, 1.6963)">
            <path d="M7.14802726,0 C9.14338346,0 18.7834067,34.9803842 23.9938718,34.9803842 C29.2043368,34.9803842 36.2278581,7.22239398 26.2398076,4.0556775 C16.2517571,0.888961021 -1.28616445,27.3721771 0.0747878111,28.6966694 C1.43574007,30.0211616 22.5383581,-0.426832009 32.6527896,6.56279949 C39.3302724,11.1773093 29.9753,37.1408047 17.1725377,32.9187371 C4.36977547,28.6966694 5.15267105,0 7.14802726,0 Z" id="Path-6" stroke="#542829" stroke-width="1.5"></path>
            <circle id="Oval" fill="#542829" cx="18.1845386" cy="17.8002983" r="2.55"></circle>
        </g>
        <path d="M52.5263889,28.4824386 L66.071877,28.4824386 L66.071877,26.0920583 L55.1823669,26.0920583 L55.1823669,9.89059216 L52.5263889,9.89059216 L52.5263889,28.4824386 Z M81.078153,21.3112978 L74.0663709,21.3112978 L77.572262,12.334092 L81.078153,21.3112978 Z M83.86693,28.4824386 L86.6291472,28.4824386 L79.3252075,9.89059216 L75.9255556,9.89059216 L68.5684964,28.4824386 L71.277594,28.4824386 L73.1367786,23.7016781 L82.0077453,23.7016781 L83.86693,28.4824386 Z M101.387532,28.4824386 L103.777912,28.4824386 L103.777912,21.3112978 C103.777912,19.8505099 102.981119,19.0537165 101.520331,19.0537165 L96.0755758,19.0537165 L96.0755758,21.4175369 L101.387532,21.4175369 L101.387532,21.9221728 C101.387532,24.312553 99.5283473,26.3576561 96.2083747,26.3576561 L95.9427769,26.3576561 C92.2244076,26.3576561 89.7012285,23.7016781 89.7012285,19.1865154 C89.7012285,14.6713527 92.2244076,12.0153746 95.9427769,12.0153746 L96.2083747,12.0153746 C98.9971517,12.0153746 100.723537,13.4496028 100.989135,15.9993417 L103.645113,15.9993417 C103.379515,12.3872115 100.856336,9.62499436 96.0755758,9.62499436 C90.4980219,9.62499436 87.0452504,13.6089614 87.0452504,19.1865154 C87.0452504,24.7640693 90.6308208,28.7480364 96.0755758,28.7480364 C99.1299506,28.7480364 100.856336,27.1810093 101.387532,26.3842159 L101.387532,28.4824386 Z M115.499629,9.62499436 C110.45327,9.62499436 106.734901,13.2105647 106.734901,19.1865154 C106.734901,25.162466 110.45327,28.7480364 115.499629,28.7480364 C120.545987,28.7480364 124.264356,25.162466 124.264356,19.1865154 C124.264356,13.2105647 120.545987,9.62499436 115.499629,9.62499436 Z M115.36683,26.3576561 C111.914058,26.3576561 109.390879,23.7016781 109.390879,19.1865154 C109.390879,14.6713527 111.914058,12.0153746 115.36683,12.0153746 L115.632428,12.0153746 C119.085199,12.0153746 121.608378,14.6713527 121.608378,19.1865154 C121.608378,23.7016781 119.085199,26.3576561 115.632428,26.3576561 L115.36683,26.3576561 Z" id="Combined-Shape" fill="#542829" fill-rule="nonzero"></path>
    </g>
</svg>